<mxfile host="app.diagrams.net" modified="2024-04-25T07:52:52.687Z" agent="Mozilla/5.0 (Macintosh; Intel Mac OS X 10_15_7) AppleWebKit/605.1.15 (KHTML, like Gecko) Version/15.6 Safari/605.1.15" etag="RWeqeXUgs1SPwFnBSICs" version="24.3.0" type="github">
  <diagram name="Page-1" id="qUptC4UAyRdvpD3RZZLq">
    <mxGraphModel dx="733" dy="619" grid="1" gridSize="10" guides="1" tooltips="1" connect="1" arrows="1" fold="1" page="1" pageScale="1" pageWidth="827" pageHeight="1169" math="0" shadow="0">
      <root>
        <mxCell id="0" />
        <mxCell id="1" parent="0" />
        <mxCell id="mrQ-roGNwyPSJ7HPIjEB-1" value="sistem&amp;nbsp;" style="shape=umlActor;verticalLabelPosition=bottom;verticalAlign=top;html=1;outlineConnect=0;" vertex="1" parent="1">
          <mxGeometry x="50" y="120" width="30" height="60" as="geometry" />
        </mxCell>
        <mxCell id="mrQ-roGNwyPSJ7HPIjEB-2" value="menadzer" style="shape=umlActor;verticalLabelPosition=bottom;verticalAlign=top;html=1;outlineConnect=0;" vertex="1" parent="1">
          <mxGeometry x="350" y="120" width="30" height="60" as="geometry" />
        </mxCell>
        <mxCell id="mrQ-roGNwyPSJ7HPIjEB-3" value="zaposleni&lt;div&gt;&lt;br&gt;&lt;/div&gt;" style="shape=umlActor;verticalLabelPosition=bottom;verticalAlign=top;html=1;outlineConnect=0;" vertex="1" parent="1">
          <mxGeometry x="350" y="370" width="30" height="60" as="geometry" />
        </mxCell>
        <mxCell id="mrQ-roGNwyPSJ7HPIjEB-4" value="gost" style="shape=umlActor;verticalLabelPosition=bottom;verticalAlign=top;html=1;outlineConnect=0;" vertex="1" parent="1">
          <mxGeometry x="620" y="120" width="30" height="60" as="geometry" />
        </mxCell>
        <mxCell id="mrQ-roGNwyPSJ7HPIjEB-7" value="" style="endArrow=none;html=1;rounded=0;entryX=0;entryY=0.3333333333333333;entryDx=0;entryDy=0;entryPerimeter=0;" edge="1" parent="1" target="mrQ-roGNwyPSJ7HPIjEB-2">
          <mxGeometry width="50" height="50" relative="1" as="geometry">
            <mxPoint x="80" y="140" as="sourcePoint" />
            <mxPoint x="130" y="90" as="targetPoint" />
          </mxGeometry>
        </mxCell>
        <mxCell id="mrQ-roGNwyPSJ7HPIjEB-8" value="" style="endArrow=none;html=1;rounded=0;entryX=0;entryY=0.3333333333333333;entryDx=0;entryDy=0;entryPerimeter=0;" edge="1" parent="1" target="mrQ-roGNwyPSJ7HPIjEB-4">
          <mxGeometry width="50" height="50" relative="1" as="geometry">
            <mxPoint x="380" y="140" as="sourcePoint" />
            <mxPoint x="610" y="150" as="targetPoint" />
          </mxGeometry>
        </mxCell>
        <mxCell id="mrQ-roGNwyPSJ7HPIjEB-9" value="" style="endArrow=none;html=1;rounded=0;" edge="1" parent="1">
          <mxGeometry width="50" height="50" relative="1" as="geometry">
            <mxPoint x="360" y="370" as="sourcePoint" />
            <mxPoint x="360" y="200" as="targetPoint" />
          </mxGeometry>
        </mxCell>
        <mxCell id="mrQ-roGNwyPSJ7HPIjEB-10" value="" style="endArrow=classic;html=1;rounded=0;" edge="1" parent="1">
          <mxGeometry width="50" height="50" relative="1" as="geometry">
            <mxPoint x="400" y="320" as="sourcePoint" />
            <mxPoint x="400" y="370" as="targetPoint" />
          </mxGeometry>
        </mxCell>
        <mxCell id="mrQ-roGNwyPSJ7HPIjEB-11" value="dolazak novih gostiju" style="text;html=1;align=center;verticalAlign=middle;whiteSpace=wrap;rounded=0;" vertex="1" parent="1">
          <mxGeometry x="390" y="330" width="106" height="30" as="geometry" />
        </mxCell>
        <mxCell id="mrQ-roGNwyPSJ7HPIjEB-12" value="" style="endArrow=classic;html=1;rounded=0;" edge="1" parent="1">
          <mxGeometry width="50" height="50" relative="1" as="geometry">
            <mxPoint x="440" y="179" as="sourcePoint" />
            <mxPoint x="590" y="179" as="targetPoint" />
          </mxGeometry>
        </mxCell>
        <mxCell id="mrQ-roGNwyPSJ7HPIjEB-13" value="smestanje gostiju" style="text;html=1;align=center;verticalAlign=middle;whiteSpace=wrap;rounded=0;" vertex="1" parent="1">
          <mxGeometry x="450" y="150" width="120" height="30" as="geometry" />
        </mxCell>
        <mxCell id="mrQ-roGNwyPSJ7HPIjEB-14" value="" style="endArrow=classic;html=1;rounded=0;" edge="1" parent="1">
          <mxGeometry width="50" height="50" relative="1" as="geometry">
            <mxPoint x="270" y="180" as="sourcePoint" />
            <mxPoint x="120" y="180" as="targetPoint" />
          </mxGeometry>
        </mxCell>
        <mxCell id="mrQ-roGNwyPSJ7HPIjEB-15" value="administracija sistema" style="text;html=1;align=center;verticalAlign=middle;whiteSpace=wrap;rounded=0;" vertex="1" parent="1">
          <mxGeometry x="140" y="150" width="130" height="30" as="geometry" />
        </mxCell>
        <mxCell id="mrQ-roGNwyPSJ7HPIjEB-17" value="" style="endArrow=none;html=1;rounded=0;entryX=0;entryY=0.3333333333333333;entryDx=0;entryDy=0;entryPerimeter=0;" edge="1" parent="1" target="mrQ-roGNwyPSJ7HPIjEB-3">
          <mxGeometry width="50" height="50" relative="1" as="geometry">
            <mxPoint x="70" y="200" as="sourcePoint" />
            <mxPoint x="160" y="220" as="targetPoint" />
          </mxGeometry>
        </mxCell>
        <mxCell id="mrQ-roGNwyPSJ7HPIjEB-18" value="" style="endArrow=classic;html=1;rounded=0;" edge="1" parent="1">
          <mxGeometry width="50" height="50" relative="1" as="geometry">
            <mxPoint x="120" y="260" as="sourcePoint" />
            <mxPoint x="60" y="220" as="targetPoint" />
            <Array as="points" />
          </mxGeometry>
        </mxCell>
        <mxCell id="mrQ-roGNwyPSJ7HPIjEB-19" value="pripremanje&lt;div&gt;sobe&amp;nbsp;&lt;/div&gt;" style="text;html=1;align=center;verticalAlign=middle;whiteSpace=wrap;rounded=0;" vertex="1" parent="1">
          <mxGeometry x="35" y="240" width="60" height="30" as="geometry" />
        </mxCell>
        <mxCell id="mrQ-roGNwyPSJ7HPIjEB-20" value="" style="endArrow=classic;html=1;rounded=0;" edge="1" parent="1">
          <mxGeometry width="50" height="50" relative="1" as="geometry">
            <mxPoint x="590" y="120" as="sourcePoint" />
            <mxPoint x="440" y="120" as="targetPoint" />
          </mxGeometry>
        </mxCell>
        <mxCell id="mrQ-roGNwyPSJ7HPIjEB-21" value="odlazak gostiju" style="text;html=1;align=center;verticalAlign=middle;whiteSpace=wrap;rounded=0;" vertex="1" parent="1">
          <mxGeometry x="450" y="90" width="130" height="30" as="geometry" />
        </mxCell>
        <mxCell id="mrQ-roGNwyPSJ7HPIjEB-22" value="" style="endArrow=classic;html=1;rounded=0;" edge="1" parent="1">
          <mxGeometry width="50" height="50" relative="1" as="geometry">
            <mxPoint x="440" y="90" as="sourcePoint" />
            <mxPoint x="590" y="90" as="targetPoint" />
          </mxGeometry>
        </mxCell>
        <mxCell id="mrQ-roGNwyPSJ7HPIjEB-23" value="izdavanje racuna" style="text;html=1;align=center;verticalAlign=middle;whiteSpace=wrap;rounded=0;" vertex="1" parent="1">
          <mxGeometry x="455" y="60" width="110" height="30" as="geometry" />
        </mxCell>
        <mxCell id="mrQ-roGNwyPSJ7HPIjEB-24" value="" style="endArrow=classic;html=1;rounded=0;" edge="1" parent="1">
          <mxGeometry width="50" height="50" relative="1" as="geometry">
            <mxPoint x="580" y="230" as="sourcePoint" />
            <mxPoint x="440" y="230" as="targetPoint" />
          </mxGeometry>
        </mxCell>
        <mxCell id="mrQ-roGNwyPSJ7HPIjEB-25" value="placanje" style="text;html=1;align=center;verticalAlign=middle;whiteSpace=wrap;rounded=0;" vertex="1" parent="1">
          <mxGeometry x="485" y="200" width="60" height="30" as="geometry" />
        </mxCell>
        <mxCell id="mrQ-roGNwyPSJ7HPIjEB-27" value="" style="endArrow=classic;html=1;rounded=0;" edge="1" parent="1">
          <mxGeometry width="50" height="50" relative="1" as="geometry">
            <mxPoint x="130" y="120" as="sourcePoint" />
            <mxPoint x="280" y="120" as="targetPoint" />
          </mxGeometry>
        </mxCell>
        <mxCell id="mrQ-roGNwyPSJ7HPIjEB-28" value="potvrda o placanju&amp;nbsp;" style="text;html=1;align=center;verticalAlign=middle;whiteSpace=wrap;rounded=0;" vertex="1" parent="1">
          <mxGeometry x="140" y="90" width="130" height="30" as="geometry" />
        </mxCell>
        <mxCell id="mrQ-roGNwyPSJ7HPIjEB-29" value="menadzer" style="shape=umlActor;verticalLabelPosition=bottom;verticalAlign=top;html=1;outlineConnect=0;" vertex="1" parent="1">
          <mxGeometry x="80" y="585" width="30" height="60" as="geometry" />
        </mxCell>
        <mxCell id="mrQ-roGNwyPSJ7HPIjEB-30" value="sistem" style="shape=umlActor;verticalLabelPosition=bottom;verticalAlign=top;html=1;outlineConnect=0;" vertex="1" parent="1">
          <mxGeometry x="310" y="585" width="30" height="60" as="geometry" />
        </mxCell>
        <mxCell id="mrQ-roGNwyPSJ7HPIjEB-31" value="dobavljac&amp;nbsp;" style="shape=umlActor;verticalLabelPosition=bottom;verticalAlign=top;html=1;outlineConnect=0;" vertex="1" parent="1">
          <mxGeometry x="530" y="585" width="30" height="60" as="geometry" />
        </mxCell>
        <mxCell id="mrQ-roGNwyPSJ7HPIjEB-35" value="" style="endArrow=none;html=1;rounded=0;entryX=0;entryY=0.3333333333333333;entryDx=0;entryDy=0;entryPerimeter=0;exitX=1;exitY=0.3333333333333333;exitDx=0;exitDy=0;exitPerimeter=0;" edge="1" parent="1" source="mrQ-roGNwyPSJ7HPIjEB-29" target="mrQ-roGNwyPSJ7HPIjEB-30">
          <mxGeometry width="50" height="50" relative="1" as="geometry">
            <mxPoint x="110" y="610" as="sourcePoint" />
            <mxPoint x="160" y="560" as="targetPoint" />
          </mxGeometry>
        </mxCell>
        <mxCell id="mrQ-roGNwyPSJ7HPIjEB-36" value="" style="endArrow=none;html=1;rounded=0;entryX=0;entryY=0.3333333333333333;entryDx=0;entryDy=0;entryPerimeter=0;exitX=1;exitY=0.3333333333333333;exitDx=0;exitDy=0;exitPerimeter=0;" edge="1" parent="1" source="mrQ-roGNwyPSJ7HPIjEB-30" target="mrQ-roGNwyPSJ7HPIjEB-31">
          <mxGeometry width="50" height="50" relative="1" as="geometry">
            <mxPoint x="340" y="610" as="sourcePoint" />
            <mxPoint x="390" y="560" as="targetPoint" />
          </mxGeometry>
        </mxCell>
        <mxCell id="mrQ-roGNwyPSJ7HPIjEB-38" value="" style="endArrow=classic;html=1;rounded=0;" edge="1" parent="1">
          <mxGeometry width="50" height="50" relative="1" as="geometry">
            <mxPoint x="140" y="640" as="sourcePoint" />
            <mxPoint x="280" y="640" as="targetPoint" />
          </mxGeometry>
        </mxCell>
        <mxCell id="mrQ-roGNwyPSJ7HPIjEB-39" value="unos potrebnih zaliha" style="text;html=1;align=center;verticalAlign=middle;whiteSpace=wrap;rounded=0;" vertex="1" parent="1">
          <mxGeometry x="140" y="615" width="130" height="30" as="geometry" />
        </mxCell>
        <mxCell id="mrQ-roGNwyPSJ7HPIjEB-40" value="" style="endArrow=classic;html=1;rounded=0;" edge="1" parent="1">
          <mxGeometry width="50" height="50" relative="1" as="geometry">
            <mxPoint x="373" y="640" as="sourcePoint" />
            <mxPoint x="513" y="640" as="targetPoint" />
          </mxGeometry>
        </mxCell>
        <mxCell id="mrQ-roGNwyPSJ7HPIjEB-41" value="porucivanje zaliha" style="text;html=1;align=center;verticalAlign=middle;whiteSpace=wrap;rounded=0;" vertex="1" parent="1">
          <mxGeometry x="360" y="610" width="160" height="30" as="geometry" />
        </mxCell>
        <mxCell id="mrQ-roGNwyPSJ7HPIjEB-42" value="" style="endArrow=classic;html=1;rounded=0;" edge="1" parent="1">
          <mxGeometry width="50" height="50" relative="1" as="geometry">
            <mxPoint x="518" y="584" as="sourcePoint" />
            <mxPoint x="368" y="584" as="targetPoint" />
          </mxGeometry>
        </mxCell>
        <mxCell id="mrQ-roGNwyPSJ7HPIjEB-43" value="slanje robe" style="text;html=1;align=center;verticalAlign=middle;whiteSpace=wrap;rounded=0;" vertex="1" parent="1">
          <mxGeometry x="390" y="550" width="115" height="30" as="geometry" />
        </mxCell>
        <mxCell id="mrQ-roGNwyPSJ7HPIjEB-44" value="" style="endArrow=classic;html=1;rounded=0;" edge="1" parent="1">
          <mxGeometry width="50" height="50" relative="1" as="geometry">
            <mxPoint x="280" y="580" as="sourcePoint" />
            <mxPoint x="140" y="580" as="targetPoint" />
          </mxGeometry>
        </mxCell>
        <mxCell id="mrQ-roGNwyPSJ7HPIjEB-45" value="kontrola prijema robe" style="text;html=1;align=center;verticalAlign=middle;whiteSpace=wrap;rounded=0;" vertex="1" parent="1">
          <mxGeometry x="170" y="540" width="90" height="30" as="geometry" />
        </mxCell>
      </root>
    </mxGraphModel>
  </diagram>
</mxfile>
